# xmcd
#
# Track frame offsets:
#	150
#	13770
#	30491
#	45476
#	70743
#	82568
#	99514
#	110181
#	127441
#	143817
#	155662
#	168870
#	186091
#	201776
#	217000
#	232185
#	250174
#	267606
#	280795
#
# Disc length: 4235 seconds
#
# Revision: 1
# Processed by: cddbd v1.5.2PL0 Copyright (c) Steve Scherf et al.
# Submitted via: EasyCDDAExtractor 10.0.2.1
#
DISCID=16108913
DTITLE=Diana Ross - Anthology [Disc 1]
DYEAR=1990
DGENRE=Blues
TTITLE0=Reach Out And Touch (Somebody's Hand)
TTITLE1=Ain't No Mountain High Enough
TTITLE2=Remember Me
TTITLE3=Reach Out I'll Be There
TTITLE4=Surrender
TTITLE5=I'm Still Waiting
TTITLE6=Good Morning Heartache
TTITLE7=Touch Me In The Morning
TTITLE8=You're A Speceal Part Of Me
TTITLE9=Last Time I Saw Him
TTITLE10=My Mistake (Was To Love You)
TTITLE11=Sleeping
TTITLE12=Sorry Doesn't Always Make It Right
TTITLE13=Theme From Mahogany (Do You Know ...)
TTITLE14=I Thought It Took A Little Time
TTITLE15=One Love In My Lifetime
TTITLE16=Baby I Love Your Way
TTITLE17=Young Mothers
TTITLE18=Brown Baby , Save The Children
EXTD=
EXTT0=
EXTT1=
EXTT2=
EXTT3=
EXTT4=
EXTT5=
EXTT6=
EXTT7=
EXTT8=
EXTT9=
EXTT10=
EXTT11=
EXTT12=
EXTT13=
EXTT14=
EXTT15=
EXTT16=
EXTT17=
EXTT18=
PLAYORDER=
